<svg xmlns="http://www.w3.org/2000/svg" width="192" height="192" viewBox="0 0 512 512">
  <defs>
    <linearGradient id="bg" x1="0" y1="0" x2="1" y2="1">
      <stop offset="0%" stop-color="#ffe38f"/>
      <stop offset="60%" stop-color="#f5b63a"/>
      <stop offset="100%" stop-color="#94cf7e"/>
    </linearGradient>
    <linearGradient id="leaf" x1="0" y1="0" x2="1" y2="1">
      <stop offset="0%" stop-color="#2f7d32"/>
      <stop offset="100%" stop-color="#1f5d27"/>
    </linearGradient>
  </defs>
  <rect width="512" height="512" rx="112" fill="url(#bg)"/>
  <circle cx="256" cy="286" r="130" fill="#f28d00"/>
  <circle cx="256" cy="286" r="106" fill="#ffb027"/>
  <path d="M256 120c18-28 43-44 76-48-4 39-24 70-58 92-13-7-19-20-18-44z" fill="url(#leaf)"/>
  <path d="M255 113c-17-26-42-42-75-46 5 38 25 69 58 90 12-7 19-20 17-44z" fill="#4f9f52"/>
  <text x="256" y="430" text-anchor="middle" font-family="Segoe UI, Arial, sans-serif" font-size="58" font-weight="700" fill="#1f3d28">PG</text>
</svg>
